# xmcd
#
# Track frame offsets: 
#        150
#        4713
#        27075
#        57965
#        97917
#        130090
#        152680
#        180702
#        201872
#        245076
#
# Disc length: 3552 seconds
#
# Revision: 0
# Processed by: cddbd v1.5.2PL0 Copyright (c) Steve Scherf et al.
# Submitted via: ExactAudioCopy v0.95a5
#
DISCID=790dde0a
DTITLE=Bluestone Company - Supernatural Delight
DYEAR=2008
DGENRE=Blues-Rock
TTITLE0=S.S.S.
TTITLE1=Got Your Spell On Me
TTITLE2=Electric Rainbow
TTITLE3=Real Gate
TTITLE4=Song Of Yesterday
TTITLE5=Colonel Panic
TTITLE6=Stomp
TTITLE7=Rubber Necking
TTITLE8=Cissy Strut
TTITLE9=Desert Blues
EXTD=
EXTT0=
EXTT1=
EXTT2=
EXTT3=
EXTT4=
EXTT5=
EXTT6=
EXTT7=
EXTT8=
EXTT9=
PLAYORDER=
